<svg id="light_icon" data-name="light icon" xmlns="http://www.w3.org/2000/svg" viewBox="0 0 1000 1000"><defs><style>.cls-1{fill:#fff;}</style></defs><title>lights-icon</title><path class="cls-1" d="M568.06,754.21c-2.28,0-4.56-1.39-6-2.28a41.79,41.79,0,0,1-7.59-6L524,715.52c-16.95-17-31.58-31.59-53.29-41.59-12.53-5.77-26-10.24-39-14.56-6.75-2.24-13.73-4.56-20.55-7-38.5-14-61.52-37.07-88.18-63.72L153,418.51a10,10,0,0,1,0-14.14l173-173a9.93,9.93,0,0,1,7.07-2.93h0a9.94,9.94,0,0,1,7.07,2.93l47.41,47.44-7.07,7.07-47.41-47.44-173,173L330.12,581.53c25.81,25.82,48.11,48.11,84.53,61.4,6.68,2.44,13.59,4.73,20.27,7,13.26,4.41,27,9,40,15,23.34,10.75,38.56,26,56.18,43.61l30.42,30.42a31.88,31.88,0,0,0,5.44,4.35l98.6-98.59a30.63,30.63,0,0,0-4.33-5.46l-19.33-19.33c-3.26-3.26-6.67-6.56-10-9.75-13.84-13.4-28.15-27.25-38.19-44.37-9.46-16.13-15.49-34-21.32-51.22-1.57-4.64-3.2-9.45-4.85-14.1-11.91-33.5-28.35-54.81-51-78.34L437.47,342.9l7.07-7.07L523.68,415c23,23.88,40.83,46.92,53.3,82,1.68,4.73,3.32,9.57,4.9,14.25,5.67,16.77,11.54,34.12,20.48,49.37,9.35,15.94,23.16,29.32,36.51,42.25,3.32,3.22,6.76,6.55,10.08,9.87l19.33,19.33c2,2,11.71,12.22,6.69,17.25L571.61,752.71A4.84,4.84,0,0,1,568.06,754.21Z"/><path class="cls-1" d="M436,497H389a10,10,0,0,1-10-10V84a10,10,0,0,1,10-10h47a10,10,0,0,1,10,10V487A10,10,0,0,1,436,497Zm0-413H389V487h47V84Z"/><path class="cls-1" d="M671.45,650.8a5,5,0,0,1-.12-10l170.55-4.19H842a5,5,0,0,1,.12,10L671.57,650.8h-0.12Z"/><path class="cls-1" d="M564,926h-0.12a5,5,0,0,1-4.88-5.12L563.16,749a5,5,0,0,1,5-4.88h0.12a5,5,0,0,1,4.88,5.12L569,921.12A5,5,0,0,1,564,926Z"/><path class="cls-1" d="M615.73,871.25a10.16,10.16,0,0,1-2.67-.36,9.89,9.89,0,0,1-7.05-7.13L573.83,739.84l9.68-2.51,32.18,123.92L785.11,691.82,659.75,661.17l2.38-9.71,125.36,30.65a10,10,0,0,1,4.7,16.78L622.76,868.31A9.89,9.89,0,0,1,615.73,871.25Z"/></svg>