<svg id="headphones_icon" data-name="headphones icon" xmlns="http://www.w3.org/2000/svg" viewBox="0 0 1000 1000"><defs><style>.cls-1{fill:#fff;}</style></defs><title>sound-icon</title><path class="cls-1" d="M662.61,620a10.71,10.71,0,0,1-10.71-10.71V365.05a10.72,10.72,0,0,1,10.71-10.71c49,0,75.93,0,89.87,18.11,13.34,17.34,13.34,49.61,13.34,113.89,0,64.52,0,96.91-13.3,114.63-13.62,18.16-38.79,19-89.9,19h0Zm0.88-255.62h-0.88a0.71,0.71,0,0,0-.71.71V609.27a0.69,0.69,0,0,0,.21.5,0.7,0.7,0,0,0,.5.21c47.73,0,71.16-.67,81.91-15,11.3-15.06,11.3-48.3,11.3-108.63,0-60.06,0-93.15-11.26-107.79C734.12,365,712.11,364.35,663.49,364.35Z"/><path class="cls-1" d="M247.27,359.31l-10-.14c0-2.9,1.3-71.84,30.73-142,17.38-41.44,41-74.51,70.3-98.28C375,89.11,420.49,74,473.55,74h0.38C527,74,572.5,89.1,609.18,118.89c29.26,23.76,52.91,56.82,70.3,98.25,29.42,70.13,30.69,139,30.73,141.94l-10,.14c0-.69-1.31-70.11-30.05-138.46-16.75-39.83-39.42-71.52-67.39-94.19C567.93,98.32,524.58,84,473.93,84h-0.38c-50.71,0-94.09,14.36-129,42.67-28,22.72-50.64,54.48-67.38,94.39C248.54,289.43,247.28,358.62,247.27,359.31Z"/><path class="cls-1" d="M288.29,620h0c-51.11,0-76.28-.84-89.9-19-13.3-17.73-13.3-50.11-13.3-114.63,0-64.28,0-96.55,13.34-113.89,13.94-18.12,40.89-18.13,89.87-18.11A10.72,10.72,0,0,1,299,365.05V609.27A10.71,10.71,0,0,1,288.29,620Zm-0.88-255.62c-48.63,0-70.63.65-81.06,14.2-11.26,14.65-11.26,47.73-11.26,107.79,0,60.34,0,93.57,11.3,108.63,10.75,14.33,34.17,15,81.9,15h0a0.7,0.7,0,0,0,.5-0.21,0.69,0.69,0,0,0,.21-0.5V365.05a0.71,0.71,0,0,0-.71-0.71h-0.88Z"/><path class="cls-1" d="M747.81,930.75a5,5,0,0,1-5-5c0-76.33-35.29-86-63.64-93.84-16.94-4.66-32.94-9.07-32.94-28.19,0-39.43,46.86-49.08,88.2-57.6,34.44-7.09,67-13.8,67-34.83,0-25.42-25.9-38.7-51-51.54-23.8-12.2-46.27-23.72-46.27-45.54a5,5,0,0,1,10,0c0,15.7,19.83,25.87,40.83,36.64,26.43,13.55,56.39,28.91,56.39,60.44,0,13.48-8.1,23.63-24.78,31-13.67,6.07-31.4,9.73-50.17,13.59-39.44,8.12-80.21,16.52-80.21,47.8,0,11,8.31,13.79,25.6,18.54,28.27,7.78,71,19.53,71,103.48A5,5,0,0,1,747.81,930.75Z"/></svg>