<?xml-stylesheet type="text/css" href="../stylesheets/logo-styles.css" ?>
<svg id="apc-icon" data-name="apc-icon" xmlns="http://www.w3.org/2000/svg" viewBox="0 0 820.61 415.75"><defs><style>.cls-1{fill:#fff;}</style></defs><title>apc-icon</title><g id="Headphones"><path id="R_Earpiece" class="cls-1" d="M803.74,79.83H682.07A16.89,16.89,0,0,1,665.2,63c0-27.13,0-43.51,13.52-53.92,11.75-9,28.05-9,63.77-9,34.71,0,52.13,0,64,8.94,14.06,10.55,14.07,27.84,14.08,54A16.88,16.88,0,0,1,803.74,79.83ZM693.31,51.77h99.17c-0.17-9.66-.75-18.86-2.79-20.39-4.43-3.32-24.25-3.32-47.2-3.32-22.79,0-42.48,0-46.66,3.22C694,32.72,693.45,41.82,693.31,51.77Z"/><path id="Headband" class="cls-1" d="M677.57,286.4c-1.55,0-38.13-.69-75.45-16.19-51.79-21.5-78.91-60.6-78.91-113.07V157c0-52.45,27-91.55,78.51-113.06,37.14-15.51,73.68-16.17,75.22-16.2l0.32,28.06c-0.31,0-33.21.7-65.39,14.31-40.38,17.08-60.66,46.31-60.66,86.88v0.19c0,40.78,20.59,70.11,61.64,87.15,32.39,13.45,64.88,14,65.21,14Z"/><path id="L_Earpiece" class="cls-1" d="M742.5,312.39c-35.72,0-52,0-63.77-9-13.53-10.41-13.53-26.79-13.52-53.92a16.89,16.89,0,0,1,16.87-16.87H803.74a16.88,16.88,0,0,1,16.87,16.89c0,26.17,0,43.46-14.08,54C794.62,312.39,777.2,312.39,742.5,312.39Zm-49.19-51.77c0.14,9.95.65,19,2.52,20.49,4.18,3.22,23.87,3.22,46.66,3.22,22.95,0,42.77,0,47.2-3.32,2-1.53,2.62-10.72,2.79-20.39H693.31Z"/></g><g id="AP"><path id="A" class="cls-1" d="M103,16.87c1.69-5.92,5.92-8.46,11.42-8.46h14c5.5,0,9.73,2.54,11.42,8.46L242.12,293.42c2.11,7.61-.85,12.26-8.46,12.26h-9.3c-5.92,0-10.15-2.54-11.84-8.46L180.8,211H61.55L30.26,297.23c-1.69,5.92-5.92,8.46-11.84,8.46H9.54c-8,0-11-4.65-8.88-12.26Zm69.35,168.72L133,77.76c-4.65-14-11-38.91-11-38.91h-0.84s-6.77,24.95-11.42,38.91L70,185.59H172.34Z"/><path id="P" class="cls-1" d="M291.57,19c0-6.76,3.38-10.57,10.15-10.57h92.61c53.28,0,91.76,34.67,91.76,89.65,0,55.39-38.48,90.92-91.76,90.92H320.75V295.12c0,6.76-3.81,10.57-10.15,10.57h-8.88c-6.77,0-10.15-3.81-10.15-10.57V19Zm99,143.77c39.75,0,65.54-24.1,65.54-64.7,0-40.17-25.8-63.43-65.12-63.43H320.75V162.76h69.77Z"/></g><g id="Entertainment"><path class="cls-1" d="M0,346.76c0-2.79,1.45-4.34,4.24-4.34H39.56c2.79,0,4.34,1.55,4.34,4.34v2.89c0,2.79-1.55,4.24-4.34,4.24H13.22v19.21H33.67c2.79,0,4.34,1.45,4.34,4.24v2.89c0,2.89-1.55,4.34-4.34,4.34H13.22v19.73h28c2.79,0,4.34,1.45,4.34,4.24v2.89c0,2.89-1.55,4.34-4.34,4.34h-37c-2.79,0-4.24-1.45-4.24-4.34V346.76Z"/><path class="cls-1" d="M57.53,346.76c0-2.79,1.45-4.34,4.24-4.34h5.58a5.21,5.21,0,0,1,5.16,2.89l26,39.46a124,124,0,0,1,6.09,11.36h0.21s-0.72-7-.72-11.36v-38c0-2.79,1.55-4.34,4.34-4.34h4.65c2.79,0,4.34,1.55,4.34,4.34v64.66c0,2.89-1.55,4.34-4.34,4.34h-5.58a5.25,5.25,0,0,1-5.06-2.89L76.33,373.51c-2.69-4.34-6.09-11.36-6.09-11.36H70s0.72,7,.72,11.36v37.91c0,2.89-1.45,4.34-4.23,4.34H61.77c-2.79,0-4.24-1.45-4.24-4.34V346.76Z"/><path class="cls-1" d="M150.49,353.88H130.76c-2.89,0-4.34-1.45-4.34-4.24v-2.89c0-2.79,1.45-4.34,4.34-4.34h52.68c2.79,0,4.23,1.55,4.23,4.34v2.89c0,2.79-1.45,4.24-4.23,4.24H163.71v57.53q0,4.34-4.34,4.34h-4.65c-2.79,0-4.24-1.45-4.24-4.34V353.88Z"/><path class="cls-1" d="M196.76,346.76c0-2.79,1.45-4.34,4.24-4.34h35.33c2.79,0,4.34,1.55,4.34,4.34v2.89c0,2.79-1.55,4.24-4.34,4.24H210v19.21h20.45c2.79,0,4.34,1.45,4.34,4.24v2.89c0,2.89-1.55,4.34-4.34,4.34H210v19.73h28c2.79,0,4.34,1.45,4.34,4.24v2.89c0,2.89-1.55,4.34-4.34,4.34H201c-2.79,0-4.24-1.45-4.24-4.34V346.76Z"/><path class="cls-1" d="M254.29,346.76c0-2.79,1.45-4.34,4.24-4.34h19.83c7.23,0,10.85.62,13.94,2,7.44,3.1,12.29,10.12,12.29,20,0,8.68-4.55,16.94-12.19,20v0.21a26.44,26.44,0,0,1,2.38,3.82l12.08,22.1c1.76,3,.41,5.16-3,5.16h-5.58a5.24,5.24,0,0,1-5.06-3l-12.91-24.38H267.51v23c0,2.89-1.45,4.34-4.23,4.34h-4.75c-2.79,0-4.24-1.45-4.24-4.34V346.76Zm25.2,30.06c7.13,0,11.57-4.44,11.57-11.67,0-4.65-1.76-8.37-5.78-10-1.76-.83-4-1.24-8-1.24h-9.81v22.93h12Z"/><path class="cls-1" d="M332.79,353.88H313.06c-2.89,0-4.34-1.45-4.34-4.24v-2.89c0-2.79,1.45-4.34,4.34-4.34h52.68c2.79,0,4.23,1.55,4.23,4.34v2.89c0,2.79-1.45,4.24-4.23,4.24H346v57.53q0,4.34-4.34,4.34H337c-2.79,0-4.24-1.45-4.24-4.34V353.88Z"/><path class="cls-1" d="M388.56,345.93a4.68,4.68,0,0,1,4.85-3.51H400a4.6,4.6,0,0,1,4.85,3.51l22.93,64.87c1,3-.31,5-3.51,5h-4.75a4.61,4.61,0,0,1-4.86-3.51L409.53,397H383.81l-5.06,15.18a4.59,4.59,0,0,1-4.85,3.62h-4.75c-3.2,0-4.55-2-3.51-5Zm17.66,40.18-6.51-19.63c-1.24-4.13-2.89-11.36-2.89-11.36h-0.21s-1.65,7.23-2.89,11.36l-6.61,19.63h19.11Z"/><path class="cls-1" d="M437.93,346.76c0-2.79,1.45-4.34,4.24-4.34h4.75c2.79,0,4.23,1.55,4.23,4.34v64.66c0,2.89-1.45,4.34-4.23,4.34h-4.75c-2.79,0-4.24-1.45-4.24-4.34V346.76Z"/><path class="cls-1" d="M468.09,346.76c0-2.79,1.45-4.34,4.24-4.34h5.58a5.21,5.21,0,0,1,5.16,2.89l26,39.46a124,124,0,0,1,6.09,11.36h0.21s-0.72-7-.72-11.36v-38c0-2.79,1.55-4.34,4.34-4.34h4.65c2.79,0,4.34,1.55,4.34,4.34v64.66c0,2.89-1.55,4.34-4.34,4.34h-5.58a5.25,5.25,0,0,1-5.06-2.89l-26.13-39.35c-2.69-4.34-6.09-11.36-6.09-11.36h-0.21s0.72,7,.72,11.36v37.91c0,2.89-1.45,4.34-4.23,4.34h-4.75c-2.79,0-4.24-1.45-4.24-4.34V346.76Z"/><path class="cls-1" d="M547.73,346.55c0.31-2.69,1.76-4.13,4.44-4.13h6.51a4.68,4.68,0,0,1,4.85,3.51l13.12,32.74c1.65,4.34,3.72,10.74,3.72,10.74h0.21s2-6.4,3.62-10.74l13.12-32.74a4.72,4.72,0,0,1,5-3.51h6.4a4,4,0,0,1,4.44,4.13l5.27,64.77c0.21,2.79-1.24,4.44-4.13,4.44H609.6a4,4,0,0,1-4.44-4.13l-2.79-36.88c-0.31-4.85-.1-11.36-0.1-11.36h-0.21s-2.27,7.13-3.92,11.36l-10.64,25a4.7,4.7,0,0,1-4.85,3.41H578.3a4.75,4.75,0,0,1-5-3.41l-10.54-25c-1.65-4.24-4-11.47-4-11.47h-0.21s0.21,6.61-.1,11.47l-2.79,36.88c-0.21,2.69-1.65,4.13-4.44,4.13h-4.65c-2.89,0-4.34-1.65-4.13-4.44Z"/><path class="cls-1" d="M632.94,346.76c0-2.79,1.45-4.34,4.24-4.34H672.5c2.79,0,4.34,1.55,4.34,4.34v2.89c0,2.79-1.55,4.24-4.34,4.24H646.16v19.21h20.45c2.79,0,4.34,1.45,4.34,4.24v2.89c0,2.89-1.55,4.34-4.34,4.34H646.16v19.73h28c2.79,0,4.34,1.45,4.34,4.24v2.89c0,2.89-1.55,4.34-4.34,4.34h-37c-2.79,0-4.24-1.45-4.24-4.34V346.76Z"/><path class="cls-1" d="M690.47,346.76c0-2.79,1.45-4.34,4.24-4.34h5.58a5.21,5.21,0,0,1,5.16,2.89l26,39.46a124,124,0,0,1,6.09,11.36h0.21s-0.72-7-.72-11.36v-38c0-2.79,1.55-4.34,4.34-4.34H746c2.79,0,4.34,1.55,4.34,4.34v64.66c0,2.89-1.55,4.34-4.34,4.34h-5.58a5.25,5.25,0,0,1-5.06-2.89l-26.13-39.35c-2.69-4.34-6.09-11.36-6.09-11.36H703s0.72,7,.72,11.36v37.91c0,2.89-1.45,4.34-4.23,4.34H694.7c-2.79,0-4.24-1.45-4.24-4.34V346.76Z"/><path class="cls-1" d="M783.43,353.88H763.7c-2.89,0-4.34-1.45-4.34-4.24v-2.89c0-2.79,1.45-4.34,4.34-4.34h52.68c2.79,0,4.23,1.55,4.23,4.34v2.89c0,2.79-1.45,4.24-4.23,4.24H796.65v57.53q0,4.34-4.34,4.34h-4.65c-2.79,0-4.24-1.45-4.24-4.34V353.88Z"/></g></svg>