<?xml-stylesheet type="text/css" href="../stylesheets/logo-styles.css" ?>
<svg id="apc-icon" data-name="apc-icon" xmlns="http://www.w3.org/2000/svg" viewBox="0 0 968.42 479.8"><defs><style>.cls-1{fill:#fff;}</style></defs><title>apc-icon</title><g id="Headphones"><path id="R_Earpiece" class="cls-1" d="M803.74,97.22H682.07A16.89,16.89,0,0,1,665.2,80.34c0-27.13,0-43.51,13.52-53.92,11.75-9,28.05-9,63.77-9,34.71,0,52.13,0,64,8.94,14.06,10.55,14.07,27.84,14.08,54A16.88,16.88,0,0,1,803.74,97.22ZM693.31,69.15h99.17c-0.17-9.66-.75-18.86-2.79-20.39-4.43-3.32-24.25-3.32-47.2-3.32-22.79,0-42.48,0-46.66,3.22C694,50.11,693.45,59.21,693.31,69.15Z"/><path id="Headband" class="cls-1" d="M677.57,303.78c-1.55,0-38.13-.69-75.45-16.19-51.79-21.5-78.91-60.6-78.91-113.07v-0.19c0-52.45,27-91.55,78.51-113.06,37.14-15.51,73.68-16.17,75.22-16.2l0.32,28.06c-0.31,0-33.21.7-65.39,14.31-40.38,17.08-60.66,46.31-60.66,86.88v0.19c0,40.78,20.59,70.11,61.64,87.15,32.39,13.45,64.88,14,65.21,14Z"/><path id="L_Earpiece" class="cls-1" d="M742.5,329.78c-35.72,0-52,0-63.77-9C665.19,310.33,665.2,294,665.2,266.82a16.89,16.89,0,0,1,16.87-16.87H803.74a16.88,16.88,0,0,1,16.87,16.89c0,26.17,0,43.46-14.08,54C794.62,329.78,777.2,329.78,742.5,329.78ZM693.31,278c0.14,9.95.65,19,2.52,20.49,4.18,3.22,23.87,3.22,46.66,3.22,22.95,0,42.77,0,47.2-3.32,2-1.53,2.62-10.72,2.79-20.39H693.31Z"/><path id="Cord" class="cls-1" d="M900.62,93c-23.33,0-28.76-26.36-33.13-47.55-2.87-13.95-6.13-29.75-12.92-29.75-9.21,0-14.55,9.08-21.65,22.92-6.43,12.54-13.08,25.51-26.71,25.51a7,7,0,0,1,0-14c5.06,0,9.72-9.09,14.22-17.88,7-13.61,15.66-30.55,34.14-30.55,8.57,0,15.17,5.06,19.6,15,3.22,7.26,5.09,16.32,7.07,25.92C885.62,63.93,889.57,79,900.62,79c1.62,0,2.38-.36,4.88-9.43,4-14.47,10.65-38.69,55.92-38.69a7,7,0,1,1,0,14c-34.58,0-38.55,14.43-42.39,28.38C916.73,81.62,913.59,93,900.62,93Z"/></g><path class="cls-1" d="M209.92,241.29H76.25L38.6,329.78H0l144.5-329,140.73,329h-38.6Zm-13.65-32.95L143.56,82.67,89.9,208.34H196.27Z"/><path class="cls-1" d="M382.21,15.84c31.54,0,57.89,3.77,79.07,22.12C484.35,57.73,490,85.5,490,105.27c0,44.24-27.77,88-99.31,88H360.09V329.78H325.26V15.84h56.95Zm-22.12,144.5H388.8c41.42,0,66.36-20.71,66.36-56.95,0-49.89-46.6-54.6-69.19-54.6H360.09V160.33Z"/><path class="cls-1" d="M58.43,394.24H23.87v20H56.73v20.15H23.87v22.94H58.43v20.15H0V374.09H58.43v20.15Z"/><path class="cls-1" d="M75.18,408.35H97.49v8.21c6.82-8.68,14.88-10.07,21.39-10.07,6,0,13.95,1.08,19.84,7,6.51,6.51,7,14.72,7,20.3v43.71H123.38V442c0-4.5-.16-10.23-3.72-13.79a11.7,11.7,0,0,0-8.52-3.1,12.13,12.13,0,0,0-9.3,3.72c-3.72,3.72-4.34,8.68-4.34,13.17v35.49H75.18V408.35Z"/><path class="cls-1" d="M186,426.33v51.15H163.68V426.33h-7.75v-18h7.75V386H186v22.32h13.79v18H186Z"/><path class="cls-1" d="M280.24,446.79H228.62c0,3.72,1.39,8.68,4.18,11.78,3.41,3.72,8.06,4.34,11.47,4.34a18.33,18.33,0,0,0,9-2,13.53,13.53,0,0,0,4.81-5.73l21.08,2.17a30.91,30.91,0,0,1-13.33,17.36c-6.66,4-14.1,5.11-21.85,5.11-10.38,0-19.53-1.86-27.59-9.92-6-6-10.39-15.19-10.39-26.66,0-9.92,3.57-20.15,10.54-27.28,8.37-8.37,18.75-9.92,26.5-9.92s18.91,1.39,27.43,10.39c8.21,8.68,9.76,19.53,9.76,28.05v2.33Zm-20.61-13.33a17.58,17.58,0,0,0-4.49-8.06,16.38,16.38,0,0,0-21.85.62,15.52,15.52,0,0,0-3.87,7.44h30.22Z"/><path class="cls-1" d="M294.19,408.35h22.32V419.2a24.81,24.81,0,0,1,8.68-9.61c3.72-2.32,7.6-2.94,11.94-2.94a22.41,22.41,0,0,1,7.28,1.08l-1.24,20.92a21.07,21.07,0,0,0-10.07-2.48,14.58,14.58,0,0,0-11.16,4.65c-5,5.27-5.42,12.71-5.42,18.6v28.05H294.19V408.35Z"/><path class="cls-1" d="M381.6,426.33v51.15H359.28V426.33h-7.75v-18h7.75V386H381.6v22.32H395.4v18H381.6Z"/><path class="cls-1" d="M458,408.35h22.32v69.13H458V469.1c-6,9.3-14.72,10.69-20.46,10.69-9.92,0-18.29-2.48-25.88-10.54a36.58,36.58,0,0,1-10.07-25.88c0-11.62,4.34-21.54,10.7-27.9,6-6,14.41-9.46,24-9.46,5.89,0,15.34,1.39,21.7,10.07v-7.75ZM429.65,430.2a17.27,17.27,0,0,0-5.11,12.55,17.83,17.83,0,0,0,4.65,12.4,18.33,18.33,0,0,0,13.17,5.42A16.53,16.53,0,0,0,454,455.77,18.34,18.34,0,0,0,454.3,430a18.68,18.68,0,0,0-12.4-4.8A17.6,17.6,0,0,0,429.65,430.2Z"/><path class="cls-1" d="M510.41,365.88a13,13,0,1,1-13,13A12.9,12.9,0,0,1,510.41,365.88Zm11.16,42.47v69.13H499.25V408.35h22.32Z"/><path class="cls-1" d="M540.48,408.35H562.8v8.21c6.82-8.68,14.88-10.07,21.39-10.07,6,0,13.95,1.08,19.84,7,6.51,6.51,7,14.72,7,20.3v43.71H588.68V442c0-4.5-.16-10.23-3.72-13.79a11.7,11.7,0,0,0-8.52-3.1,12.13,12.13,0,0,0-9.3,3.72c-3.72,3.72-4.34,8.68-4.34,13.17v35.49H540.48V408.35Z"/><path class="cls-1" d="M628.36,408.35h22.32v8.06c5.73-8.68,14.1-9.76,19.37-9.76,2.94,0,8.37.31,13,3.1a20.45,20.45,0,0,1,8.37,9.61A26.56,26.56,0,0,1,715,406.64c8.37,0,15.19,2.48,19.37,6.51,6.66,6.36,7.13,15.65,7.13,20.61v43.71H719.19v-35c0-3.57,0-9.76-2.94-13.49a10.25,10.25,0,0,0-8.06-3.72,10.73,10.73,0,0,0-8.68,4.18c-2.94,3.72-3.41,9.14-3.41,13.64v34.41H673.77v-36c0-4.65-.16-10.07-3.57-13.48a10,10,0,0,0-7.44-2.79A10.88,10.88,0,0,0,655,428c-4.18,4-4.34,11.78-4.34,14.1v35.34H628.36V408.35Z"/><path class="cls-1" d="M829.86,446.79H778.24c0,3.72,1.39,8.68,4.18,11.78,3.41,3.72,8.06,4.34,11.47,4.34a18.33,18.33,0,0,0,9-2,13.53,13.53,0,0,0,4.81-5.73l21.08,2.17a30.91,30.91,0,0,1-13.33,17.36c-6.66,4-14.1,5.11-21.85,5.11-10.38,0-19.53-1.86-27.59-9.92-6-6-10.39-15.19-10.39-26.66,0-9.92,3.57-20.15,10.54-27.28,8.37-8.37,18.75-9.92,26.5-9.92s18.91,1.39,27.43,10.39c8.21,8.68,9.76,19.53,9.76,28.05v2.33Zm-20.61-13.33a17.58,17.58,0,0,0-4.49-8.06,16.38,16.38,0,0,0-21.85.62,15.52,15.52,0,0,0-3.87,7.44h30.22Z"/><path class="cls-1" d="M843.81,408.35h22.32v8.21c6.82-8.68,14.88-10.07,21.39-10.07,6,0,13.95,1.08,19.84,7,6.51,6.51,7,14.72,7,20.3v43.71H892V442c0-4.5-.16-10.23-3.72-13.79a11.7,11.7,0,0,0-8.52-3.1,12.13,12.13,0,0,0-9.3,3.72c-3.72,3.72-4.34,8.68-4.34,13.17v35.49H843.81V408.35Z"/><path class="cls-1" d="M954.63,426.33v51.15H932.31V426.33h-7.75v-18h7.75V386h22.32v22.32h13.79v18H954.63Z"/></svg>