<?xml version="1.0" encoding="utf-8"?>
<!-- Generator: Adobe Illustrator 19.2.1, SVG Export Plug-In . SVG Version: 6.00 Build 0)  -->
<svg version="1.1" id="Layer_1" xmlns="http://www.w3.org/2000/svg" xmlns:xlink="http://www.w3.org/1999/xlink" x="0px" y="0px"
	 viewBox="0 0 710 502.5" style="enable-background:new 0 0 710 502.5;" xml:space="preserve">
<style type="text/css">
	.st0{fill:none;stroke:#FFFFFF;stroke-width:10;stroke-miterlimit:10;}
	.st1{fill:none;stroke:#FFFFFF;stroke-width:20;stroke-miterlimit:10;}
	.st2{fill:none;stroke:#FFFFFF;stroke-width:20;stroke-linecap:round;stroke-miterlimit:10;}
</style>
<title>dj-icon</title>
<path class="st0" d="M117.8,332.2h29c2.8,0,5,2.2,5,5v69.8c0,2.8-2.2,5-5,5h-29c-2.8,0-5-2.2-5-5v-69.8
	C112.8,334.4,115.1,332.2,117.8,332.2z"/>
<circle class="st0" cx="415.4" cy="250.9" r="181.4"/>
<circle class="st0" cx="415.4" cy="250.9" r="40.4"/>
<circle class="st1" cx="132.7" cy="103.6" r="40.4"/>
<path class="st2" d="M142.8,142.8l48.1,164c0.6,1.9,2.2,3.3,4.2,3.6L375,332.2"/>
<path class="st1" d="M46.9,12.6h615.2c2.8,0,5,2.2,5,5v467.3c0,2.8-2.2,5-5,5H46.9c-2.8,0-5-2.2-5-5V17.6
	C41.9,14.8,44.2,12.6,46.9,12.6z"/>
</svg>
