<svg id="dj_icon" data-name="dj icon" xmlns="http://www.w3.org/2000/svg" viewBox="0 0 1000 1000"><defs><style>.cls-1{fill:#fff;}</style></defs><title>dj-icon</title><path class="cls-1" d="M225.81,840.62h-60.5a10,10,0,0,1-10-10V696.46a10,10,0,0,1,10-10h60.5a10,10,0,0,1,10,10V830.62A10,10,0,0,1,225.81,840.62Zm-60.5-144.17V830.62h60.5V696.46h-60.5Z"/><path class="cls-1" d="M500,759.31a259.31,259.31,0,1,1,183.36-75.95A257.61,257.61,0,0,1,500,759.31Zm0-508.62a249.31,249.31,0,1,0,176.29,73A247.68,247.68,0,0,0,500,250.69Z"/><path class="cls-1" d="M500,561.69A61.69,61.69,0,1,1,561.69,500,61.76,61.76,0,0,1,500,561.69Zm0-113.37A51.69,51.69,0,1,0,551.69,500,51.74,51.74,0,0,0,500,448.31Z"/><path class="cls-1" d="M218.69,283.25a57.09,57.09,0,1,1,57.09-57.09A57.15,57.15,0,0,1,218.69,283.25Zm0-104.18a47.09,47.09,0,1,0,47.09,47.09A47.14,47.14,0,0,0,218.69,179.08Z"/><path class="cls-1" d="M456.75,672.49a5,5,0,0,1-2.2-.51L209.21,551.28a12.53,12.53,0,0,1-7-11.9l13.17-257.51a5,5,0,1,1,10,.51L212.2,539.9a2.54,2.54,0,0,0,1.42,2.41L459,663A5,5,0,0,1,456.75,672.49Z"/><path class="cls-1" d="M868.65,878.65H131.35a10,10,0,0,1-10-10V131.35a10,10,0,0,1,10-10H868.65a10,10,0,0,1,10,10V868.65A10,10,0,0,1,868.65,878.65ZM131.35,131.35V868.65H868.65V131.35H131.35Z"/></svg>