<?xml version="1.0" encoding="utf-8"?>
<!-- Generator: Adobe Illustrator 19.2.1, SVG Export Plug-In . SVG Version: 6.00 Build 0)  -->
<svg version="1.1" id="Layer_1" xmlns="http://www.w3.org/2000/svg" xmlns:xlink="http://www.w3.org/1999/xlink" x="0px" y="0px"
	 viewBox="0 0 710 865.3" style="enable-background:new 0 0 710 865.3;" xml:space="preserve">
<style type="text/css">
	.st0{fill:none;stroke:#FFFFFF;stroke-width:20;stroke-miterlimit:10;}
	.st1{fill:none;stroke:#FFFFFF;stroke-width:10;stroke-linecap:round;stroke-miterlimit:10;}
	.st2{fill:none;stroke:#FFFFFF;stroke-width:10;stroke-miterlimit:10;}
</style>
<title>lights-icon</title>
<path class="st0" d="M239.8,214.3l-46.7-46.8c-2-2-5.1-2-7.1,0l-173,173c-2,2-2,5.1,0,7.1l170.1,170.1
	c27.1,27.2,49.5,49.1,86.4,62.6c19.9,7.3,40.6,12.9,59.9,21.8c23.1,10.6,38.2,26.1,56,43.8l29.2,29.2c4.6,4.6,9.8,7.1,10.1,6.8
	l51.4-51.4l52-52c0.4-0.4-2-5.5-6.7-10.2L501.9,549c-16.7-16.7-35.3-32.5-47.4-53.1c-11.7-20-18-42.8-25.8-64.5
	c-12-33.8-28.8-55.9-52.1-80.1l-79.3-79.4"/>
<path class="st0" d="M245.5,11.7h47c2.8,0,5,2.2,5,5v403c0,2.8-2.2,5-5,5h-47c-2.8,0-5-2.2-5-5v-403
	C240.5,13.9,242.7,11.7,245.5,11.7z"/>
<line class="st1" x1="527.9" y1="578.5" x2="698.5" y2="574.3"/>
<line class="st1" x1="424.6" y1="681.8" x2="420.5" y2="853.7"/>
<path class="st2" d="M517.4,589l125.4,30.7c2.7,0.7,4.3,3.4,3.7,6c-0.2,0.9-0.7,1.7-1.3,2.3L475.7,797.5c-2,2-5.1,2-7.1,0
	c-0.6-0.6-1.1-1.4-1.3-2.3l-32.2-123.9"/>
</svg>
