<svg id="Layer_1" data-name="Layer 1" xmlns="http://www.w3.org/2000/svg" viewBox="0 0 249 1003.42"><defs><style>.cls-1,.cls-2,.cls-3,.cls-4{fill:none;stroke:#fff;stroke-miterlimit:10;}.cls-1,.cls-4{stroke-width:7px;}.cls-2,.cls-4{stroke-linecap:round;}.cls-2,.cls-3{stroke-width:3px;}</style></defs><title>services-icons-sprite</title><path class="cls-1" d="M95.59,86.71L79,70.1a1.78,1.78,0,0,0-2.51,0L15,131.55a1.78,1.78,0,0,0,0,2.51l60.41,60.41c9.64,9.64,17.59,17.45,30.67,22.22,7.08,2.58,14.41,4.57,21.27,7.73,8.19,3.77,13.57,9.26,19.88,15.57l10.36,10.36a8.66,8.66,0,0,0,3.58,2.41l18.24-18.24L197.92,216c0.14-.14-0.73-2-2.38-3.61l-6.87-6.87c-5.94-5.94-12.54-11.56-16.83-18.87-4.17-7.11-6.41-15.18-9.16-22.9-4.26-12-10.22-19.86-18.52-28.46L116,107.14" transform="translate(-11 -11.23)"/><rect class="cls-1" x="84.82" y="3.5" width="20.25" height="146.69" rx="5" ry="5"/><line class="cls-2" x1="186.92" y1="204.81" x2="247.5" y2="203.33"/><line class="cls-2" x1="150.23" y1="241.5" x2="148.75" y2="302.56"/><path class="cls-3" d="M194.19,219.78l44.52,10.89a1.78,1.78,0,0,1,.83,3l-60.17,60.17a1.78,1.78,0,0,1-3-.81L165,249" transform="translate(-11 -11.23)"/><path class="cls-1" d="M186,606V530a1.78,1.78,0,0,1,1.78-1.78c30.54,0,30.56.24,30.56,39.52s0,40-30.56,40A1.78,1.78,0,0,1,186,606Z" transform="translate(-11 -11.23)"/><path class="cls-1" d="M57,529.06s1.18-86.33,72-86.33h0.12c70.8,0,72,86.74,72,86.74" transform="translate(-11 -11.23)"/><path class="cls-1" d="M73.1,606V530a1.78,1.78,0,0,0-1.78-1.78c-30.54,0-30.56.24-30.56,39.52s0,40,30.56,40A1.78,1.78,0,0,0,73.1,606Z" transform="translate(-11 -11.23)"/><path class="cls-2" d="M202.31,607.53c0,12.55,30.26,13.64,30.26,30.21s-48.29,7.95-48.29,28.77c0,13,30.06-1.33,30.06,38" transform="translate(-11 -11.23)"/><rect class="cls-3" x="39.66" y="943.89" width="13.85" height="28.33" rx="5" ry="5"/><circle class="cls-3" cx="147.12" cy="915.03" r="64.43"/><circle class="cls-3" cx="147.12" cy="915.03" r="14.36"/><circle class="cls-1" cx="46.72" cy="862.72" r="14.36"/><path class="cls-4" d="M61.32,887.86L78.39,946.1a1.78,1.78,0,0,0,1.49,1.26l63.88,7.76" transform="translate(-11 -11.23)"/><rect class="cls-1" x="14.47" y="830.38" width="222.04" height="169.54" rx="5" ry="5"/></svg>