<?xml version="1.0" encoding="utf-8"?>
<!-- Generator: Adobe Illustrator 19.2.1, SVG Export Plug-In . SVG Version: 6.00 Build 0)  -->
<svg version="1.1" id="Layer_1" xmlns="http://www.w3.org/2000/svg" xmlns:xlink="http://www.w3.org/1999/xlink" x="0px" y="0px"
	 viewBox="0 0 710 766" style="enable-background:new 0 0 710 766;" xml:space="preserve">
<style type="text/css">
	.st0{fill:none;stroke:#FFFFFF;stroke-width:20;stroke-miterlimit:10;}
	.st1{fill:none;stroke:#FFFFFF;stroke-width:10;stroke-linecap:round;stroke-miterlimit:10;}
</style>
<title>dj-icon</title>
<path class="st0" d="M494,476.7v-214c0-2.8,2.2-5,5-5c86,0,86.1,0.7,86.1,111.3S585,481.6,499,481.7
	C496.2,481.7,494,479.4,494,476.7z"/>
<path class="st0" d="M130.7,257.6c0,0,3.3-245.6,202.7-245.6h0.3C533,12,536.3,257.5,536.3,257.5"/>
<path class="st0" d="M176,476.7v-214c0-2.8-2.2-5-5-5c-86,0-86.1,0.7-86.1,111.3S85,481.6,171,481.7
	C173.8,481.7,176,479.4,176,476.7z"/>
<path class="st1" d="M539.8,481c0,35.3,85.2,38.4,85.2,85.1s-136,22.4-136,81c0,36.7,84.6-3.7,84.6,106.9"/>
</svg>
